<?xml version="1.0" encoding="UTF-8"?>
<!-- Generator: Adobe Illustrator 19.1.0, SVG Export Plug-In . SVG Version: 6.00 Build 0)  -->
<svg xmlns="http://www.w3.org/2000/svg" xmlns:xlink="http://www.w3.org/1999/xlink" version="1.1" id="Layer_1" x="0px" y="0px" width="1063" height="87" xml:space="preserve">
<g>
	<path d="M24.5,85.2V17H0V1.3h66.9V17H42.5v68.2H24.5z"></path>
	<path d="M85.2,43.3c0-25.3,18.5-43.4,43.9-43.4c25.3,0,43.8,18.1,43.8,43.4c0,25.3-18.5,43.4-43.8,43.4   C103.6,86.7,85.2,68.6,85.2,43.3z M154.5,43.3c0-15.7-9.9-27.5-25.4-27.5c-15.6,0-25.5,11.8-25.5,27.5c0,15.6,9.9,27.6,25.5,27.6   C144.5,70.8,154.5,58.9,154.5,43.3z"></path>
	<path d="M257.1,85.2l-40-54.7v54.7h-17.9V1.3h18.4L256.5,54V1.3h17.9v83.9H257.1z"></path>
	<path d="M328.2,85.2V50.8L296,1.3h20.4l20.8,33.6l20.8-33.6h20.3L346,50.8v34.3H328.2z"></path>
	<path d="M493.3,85.2l-16.5-29.8h-13.1v29.8h-17.9V1.3h39.3c17.5,0,28.3,11.4,28.3,27c0,14.7-9.4,22.8-18.5,24.9l19,32H493.3z    M495.1,28.2c0-6.9-5.4-11.2-12.5-11.2h-18.9v22.6h18.9C489.7,39.6,495.1,35.3,495.1,28.2z"></path>
	<path d="M536.6,43.3c0-25.3,18.5-43.4,43.9-43.4c25.3,0,43.8,18.1,43.8,43.4c0,25.3-18.5,43.4-43.8,43.4   C555.1,86.7,536.6,68.6,536.6,43.3z M605.9,43.3c0-15.7-9.9-27.5-25.4-27.5c-15.6,0-25.5,11.8-25.5,27.5c0,15.6,9.9,27.6,25.5,27.6   C596,70.8,605.9,58.9,605.9,43.3z"></path>
	<path d="M650.7,85.2V1.3h44.2c16,0,24.2,10.2,24.2,21.4c0,10.4-6.5,17.6-14.5,19.2c9.1,1.4,16.1,10.1,16.1,20.5   c0,12.7-8.3,22.8-24.4,22.8H650.7z M700.7,25.8c0-5.2-3.8-8.8-9.8-8.8h-22.4v17.6h22.4C697,34.6,700.7,31.2,700.7,25.8z    M702.4,59.9c0-5.3-3.8-9.6-10.7-9.6h-23.1v19.1h23.1C698.3,69.4,702.4,65.9,702.4,59.9z"></path>
	<path d="M747.9,85.2V1.3H792c16,0,24.2,10.2,24.2,21.4c0,10.4-6.5,17.6-14.5,19.2c9.1,1.4,16.1,10.1,16.1,20.5   c0,12.7-8.3,22.8-24.4,22.8H747.9z M798,25.8c0-5.2-3.8-8.8-9.8-8.8h-22.4v17.6h22.4C794.2,34.6,798,31.2,798,25.8z M799.6,59.9   c0-5.3-3.8-9.6-10.7-9.6h-23.1v19.1h23.1C795.6,69.4,799.6,65.9,799.6,59.9z"></path>
	<path d="M845.1,85.2V1.3H863v83.9H845.1z"></path>
	<path d="M951.3,85.2l-40-54.7v54.7h-17.9V1.3h18.4L950.7,54V1.3h17.9v83.9H951.3z"></path>
	<path d="M993.2,73.3l9.8-14c5.9,6.2,15.1,11.4,26.7,11.4c9.9,0,14.6-4.4,14.6-9.3c0-14.6-48.3-4.4-48.3-36   c0-14,12.1-25.5,31.8-25.5c13.3,0,24.4,4,32.7,11.7l-9.9,13.3c-6.8-6.3-15.9-9.2-24.4-9.2c-7.5,0-11.8,3.3-11.8,8.3   c0,13.2,48.2,4.3,48.2,35.6c0,15.3-11.1,26.9-33.6,26.9C1012.7,86.7,1001.1,81.3,993.2,73.3z"></path>
</g>
</svg>
